G04 #@! TF.FileFunction,Copper,L1,Top,Signal*
%FSLAX46Y46*%
G04 Gerber Fmt 4.6, Leading zero omitted, Abs format (unit mm)*
G04 Created by KiCad (PCBNEW 4.0.2+e4-6225~38~ubuntu16.04.1-stable) date 2016년 06월 28일 (화) 오후 06시 01분 50초*
%MOMM*%
G01*
G04 APERTURE LIST*
%ADD10C,0.100000*%
%ADD11C,1.300000*%
%ADD12R,1.300000X1.300000*%
%ADD13R,4.000500X2.400300*%
%ADD14C,1.998980*%
%ADD15R,1.727200X1.727200*%
%ADD16O,1.727200X1.727200*%
%ADD17C,1.500000*%
%ADD18O,1.727200X3.048000*%
%ADD19C,0.250000*%
G04 APERTURE END LIST*
D10*
D11*
X93533600Y-61112400D03*
D12*
X91033600Y-61112400D03*
D13*
X61226700Y-66700400D03*
X69227700Y-66700400D03*
D14*
X94437200Y-67970400D03*
X94437200Y-78130400D03*
X90170000Y-78079600D03*
X90170000Y-67919600D03*
D15*
X83718400Y-57150000D03*
D16*
X83718400Y-59690000D03*
X81178400Y-57150000D03*
X81178400Y-59690000D03*
X78638400Y-57150000D03*
X78638400Y-59690000D03*
X76098400Y-57150000D03*
X76098400Y-59690000D03*
D17*
X70612000Y-56286400D03*
X70408800Y-59334400D03*
X64160400Y-75234800D03*
X67767200Y-75184000D03*
D18*
X101498000Y-61569600D03*
X106578000Y-61569600D03*
X101498000Y-74269600D03*
X106578000Y-74269600D03*
D19*
X91519400Y-62573500D02*
X91033600Y-62087700D01*
X91519400Y-76730200D02*
X91519400Y-62573500D01*
X90170000Y-78079600D02*
X91519400Y-76730200D01*
X91033600Y-61112400D02*
X91033600Y-62087700D01*
X106578000Y-61569600D02*
X106578000Y-59720300D01*
X67767200Y-69686400D02*
X69227700Y-68225900D01*
X67767200Y-75184000D02*
X67767200Y-69686400D01*
X69227700Y-66700400D02*
X69227700Y-67463100D01*
X69227700Y-67463100D02*
X69227700Y-68225900D01*
X82529500Y-60061500D02*
X82529500Y-59690000D01*
X75127900Y-67463100D02*
X82529500Y-60061500D01*
X69227700Y-67463100D02*
X75127900Y-67463100D01*
X83718400Y-59690000D02*
X82529500Y-59690000D01*
X83718400Y-59690000D02*
X84907300Y-59690000D01*
X93533600Y-60041300D02*
X93533600Y-61112400D01*
X93854600Y-59720300D02*
X93533600Y-60041300D01*
X106578000Y-59720300D02*
X93854600Y-59720300D01*
X85258600Y-60041300D02*
X84907300Y-59690000D01*
X93533600Y-60041300D02*
X85258600Y-60041300D01*
X94437200Y-67970400D02*
X95097600Y-67970400D01*
X101498000Y-74269600D02*
X100736000Y-74269600D01*
X83718400Y-57150000D02*
X82529500Y-57150000D01*
X82529500Y-57521600D02*
X82529500Y-57150000D01*
X81712200Y-58338900D02*
X82529500Y-57521600D01*
X71404300Y-58338900D02*
X81712200Y-58338900D01*
X70408800Y-59334400D02*
X71404300Y-58338900D01*
X64160400Y-71159600D02*
X64160400Y-75234800D01*
X61226700Y-68225900D02*
X64160400Y-71159600D01*
X61226700Y-67007300D02*
X61226700Y-68225900D01*
X61226700Y-67007300D02*
X61226700Y-66700400D01*
X74416900Y-57642600D02*
X74909500Y-57150000D01*
X68759100Y-57642600D02*
X74416900Y-57642600D01*
X61226700Y-65175000D02*
X68759100Y-57642600D01*
X61226700Y-66700400D02*
X61226700Y-65175000D01*
X76098400Y-57150000D02*
X74909500Y-57150000D01*
M02*
