M48
INCH,TZ
T1C0.031
T2C0.032
T3C0.039
T4C0.040
%
G90
G05
T1
X25260Y-29620
X26680Y-29600
X27720Y-23360
X27800Y-22160
X35840Y-24060
X36824Y-24060
T2
X39960Y-24240
X39960Y-29240
X41960Y-24240
X41960Y-29240
T3
X35500Y-26740
X35500Y-30740
X37180Y-26760
X37180Y-30760
T4
X29960Y-22500
X29960Y-23500
X30960Y-22500
X30960Y-23500
X31960Y-22500
X31960Y-23500
X32960Y-22500
X32960Y-23500
T0
M30
