G04 #@! TF.FileFunction,Legend,Top*
%FSLAX46Y46*%
G04 Gerber Fmt 4.6, Leading zero omitted, Abs format (unit mm)*
G04 Created by KiCad (PCBNEW 4.0.2+e4-6225~38~ubuntu16.04.1-stable) date 2016년 06월 28일 (화) 오후 06시 01분 50초*
%MOMM*%
G01*
G04 APERTURE LIST*
%ADD10C,0.100000*%
%ADD11C,0.150000*%
%ADD12C,0.152400*%
G04 APERTURE END LIST*
D10*
D11*
X92358600Y-57963400D02*
X92358600Y-64261400D01*
X92498600Y-57969400D02*
X92498600Y-64255400D01*
X92638600Y-57982400D02*
X92638600Y-60666400D01*
X92638600Y-61558400D02*
X92638600Y-64242400D01*
X92778600Y-58001400D02*
X92778600Y-60456400D01*
X92778600Y-61768400D02*
X92778600Y-64223400D01*
X92918600Y-58027400D02*
X92918600Y-60323400D01*
X92918600Y-61901400D02*
X92918600Y-64197400D01*
X93058600Y-58059400D02*
X93058600Y-60232400D01*
X93058600Y-61992400D02*
X93058600Y-64165400D01*
X93198600Y-58098400D02*
X93198600Y-60170400D01*
X93198600Y-62054400D02*
X93198600Y-64126400D01*
X93338600Y-58144400D02*
X93338600Y-60131400D01*
X93338600Y-62093400D02*
X93338600Y-64080400D01*
X93478600Y-58197400D02*
X93478600Y-60114400D01*
X93478600Y-62110400D02*
X93478600Y-64027400D01*
X93618600Y-58259400D02*
X93618600Y-60116400D01*
X93618600Y-62108400D02*
X93618600Y-63965400D01*
X93758600Y-58329400D02*
X93758600Y-60138400D01*
X93758600Y-62086400D02*
X93758600Y-63895400D01*
X93898600Y-58408400D02*
X93898600Y-60181400D01*
X93898600Y-62043400D02*
X93898600Y-63816400D01*
X94038600Y-58496400D02*
X94038600Y-60249400D01*
X94038600Y-61975400D02*
X94038600Y-63728400D01*
X94178600Y-58596400D02*
X94178600Y-60348400D01*
X94178600Y-61876400D02*
X94178600Y-63628400D01*
X94318600Y-58708400D02*
X94318600Y-60493400D01*
X94318600Y-61731400D02*
X94318600Y-63516400D01*
X94458600Y-58833400D02*
X94458600Y-60732400D01*
X94458600Y-61492400D02*
X94458600Y-63391400D01*
X94598600Y-58976400D02*
X94598600Y-63248400D01*
X94738600Y-59138400D02*
X94738600Y-63086400D01*
X94878600Y-59326400D02*
X94878600Y-62898400D01*
X95018600Y-59549400D02*
X95018600Y-62675400D01*
X95158600Y-59825400D02*
X95158600Y-62399400D01*
X95298600Y-60200400D02*
X95298600Y-62024400D01*
X94533600Y-61112400D02*
G75*
G03X94533600Y-61112400I-1000000J0D01*
G01*
X95471100Y-61112400D02*
G75*
G03X95471100Y-61112400I-3187500J0D01*
G01*
X70053200Y-65684400D02*
X70053200Y-67716400D01*
X69926200Y-68097400D02*
X69926200Y-65176400D01*
X69799200Y-64922400D02*
X69799200Y-68478400D01*
X69672200Y-68859400D02*
X69672200Y-64541400D01*
X69545200Y-64287400D02*
X69545200Y-69113400D01*
X69418200Y-69240400D02*
X69418200Y-64160400D01*
X70434200Y-71907400D02*
X70434200Y-61493400D01*
X70434200Y-61493400D02*
X60782200Y-61493400D01*
X60782200Y-61493400D02*
X60020200Y-62255400D01*
X60020200Y-62255400D02*
X60020200Y-71145400D01*
X60020200Y-71145400D02*
X60782200Y-71907400D01*
X60782200Y-71907400D02*
X70434200Y-71907400D01*
X60655200Y-66700400D02*
X61417200Y-66700400D01*
X61036200Y-67081400D02*
X61036200Y-66319400D01*
X70180200Y-66700400D02*
G75*
G03X70180200Y-66700400I-4953000J0D01*
G01*
X95707200Y-70510400D02*
X95707200Y-75590400D01*
X95707200Y-75590400D02*
X93167200Y-75590400D01*
X93167200Y-75590400D02*
X93167200Y-70510400D01*
X93167200Y-70510400D02*
X95707200Y-70510400D01*
X94437200Y-70510400D02*
X94437200Y-69240400D01*
X94437200Y-75590400D02*
X94437200Y-76860400D01*
X88900000Y-75539600D02*
X88900000Y-70459600D01*
X88900000Y-70459600D02*
X91440000Y-70459600D01*
X91440000Y-70459600D02*
X91440000Y-75539600D01*
X91440000Y-75539600D02*
X88900000Y-75539600D01*
X90170000Y-75539600D02*
X90170000Y-76809600D01*
X90170000Y-70459600D02*
X90170000Y-69189600D01*
D12*
X84988400Y-58420000D02*
X84988400Y-55880000D01*
X84988400Y-55880000D02*
X82448400Y-55880000D01*
X82448400Y-55880000D02*
X74828400Y-55880000D01*
X74828400Y-55880000D02*
X74828400Y-60960000D01*
X74828400Y-60960000D02*
X84988400Y-60960000D01*
X84988400Y-60960000D02*
X84988400Y-58420000D01*
D11*
X108617050Y-67919600D02*
G75*
G03X108617050Y-67919600I-4579050J0D01*
G01*
X97688000Y-74269600D02*
X97688000Y-61569600D01*
X97688000Y-61569600D02*
X110388000Y-61569600D01*
X110388000Y-61569600D02*
X110388000Y-74269600D01*
X110388000Y-74269600D02*
X97688000Y-74269600D01*
X94565981Y-59024781D02*
X93994552Y-59024781D01*
X94280266Y-59024781D02*
X94280266Y-58024781D01*
X94185028Y-58167638D01*
X94089790Y-58262876D01*
X93994552Y-58310495D01*
X95185028Y-58024781D02*
X95280267Y-58024781D01*
X95375505Y-58072400D01*
X95423124Y-58120019D01*
X95470743Y-58215257D01*
X95518362Y-58405733D01*
X95518362Y-58643829D01*
X95470743Y-58834305D01*
X95423124Y-58929543D01*
X95375505Y-58977162D01*
X95280267Y-59024781D01*
X95185028Y-59024781D01*
X95089790Y-58977162D01*
X95042171Y-58929543D01*
X94994552Y-58834305D01*
X94946933Y-58643829D01*
X94946933Y-58405733D01*
X94994552Y-58215257D01*
X95042171Y-58120019D01*
X95089790Y-58072400D01*
X95185028Y-58024781D01*
X96137409Y-58024781D02*
X96232648Y-58024781D01*
X96327886Y-58072400D01*
X96375505Y-58120019D01*
X96423124Y-58215257D01*
X96470743Y-58405733D01*
X96470743Y-58643829D01*
X96423124Y-58834305D01*
X96375505Y-58929543D01*
X96327886Y-58977162D01*
X96232648Y-59024781D01*
X96137409Y-59024781D01*
X96042171Y-58977162D01*
X95994552Y-58929543D01*
X95946933Y-58834305D01*
X95899314Y-58643829D01*
X95899314Y-58405733D01*
X95946933Y-58215257D01*
X95994552Y-58120019D01*
X96042171Y-58072400D01*
X96137409Y-58024781D01*
X97327886Y-58358114D02*
X97327886Y-59024781D01*
X96899314Y-58358114D02*
X96899314Y-58881924D01*
X96946933Y-58977162D01*
X97042171Y-59024781D01*
X97185029Y-59024781D01*
X97280267Y-58977162D01*
X97327886Y-58929543D01*
X98137410Y-58500971D02*
X97804076Y-58500971D01*
X97804076Y-59024781D02*
X97804076Y-58024781D01*
X98280267Y-58024781D01*
X64044534Y-69597543D02*
X63996915Y-69645162D01*
X63854058Y-69692781D01*
X63758820Y-69692781D01*
X63615962Y-69645162D01*
X63520724Y-69549924D01*
X63473105Y-69454686D01*
X63425486Y-69264210D01*
X63425486Y-69121352D01*
X63473105Y-68930876D01*
X63520724Y-68835638D01*
X63615962Y-68740400D01*
X63758820Y-68692781D01*
X63854058Y-68692781D01*
X63996915Y-68740400D01*
X64044534Y-68788019D01*
X64425486Y-68788019D02*
X64473105Y-68740400D01*
X64568343Y-68692781D01*
X64806439Y-68692781D01*
X64901677Y-68740400D01*
X64949296Y-68788019D01*
X64996915Y-68883257D01*
X64996915Y-68978495D01*
X64949296Y-69121352D01*
X64377867Y-69692781D01*
X64996915Y-69692781D01*
X96413581Y-73740876D02*
X96413581Y-74312305D01*
X96413581Y-74026591D02*
X95413581Y-74026591D01*
X95556438Y-74121829D01*
X95651676Y-74217067D01*
X95699295Y-74312305D01*
X95413581Y-73121829D02*
X95413581Y-73026590D01*
X95461200Y-72931352D01*
X95508819Y-72883733D01*
X95604057Y-72836114D01*
X95794533Y-72788495D01*
X96032629Y-72788495D01*
X96223105Y-72836114D01*
X96318343Y-72883733D01*
X96365962Y-72931352D01*
X96413581Y-73026590D01*
X96413581Y-73121829D01*
X96365962Y-73217067D01*
X96318343Y-73264686D01*
X96223105Y-73312305D01*
X96032629Y-73359924D01*
X95794533Y-73359924D01*
X95604057Y-73312305D01*
X95508819Y-73264686D01*
X95461200Y-73217067D01*
X95413581Y-73121829D01*
X96413581Y-72359924D02*
X95413581Y-72359924D01*
X96413581Y-71788495D02*
X95842152Y-72217067D01*
X95413581Y-71788495D02*
X95985010Y-72359924D01*
X88590381Y-74013866D02*
X88590381Y-74585295D01*
X88590381Y-74299581D02*
X87590381Y-74299581D01*
X87733238Y-74394819D01*
X87828476Y-74490057D01*
X87876095Y-74585295D01*
X87590381Y-73394819D02*
X87590381Y-73299580D01*
X87638000Y-73204342D01*
X87685619Y-73156723D01*
X87780857Y-73109104D01*
X87971333Y-73061485D01*
X88209429Y-73061485D01*
X88399905Y-73109104D01*
X88495143Y-73156723D01*
X88542762Y-73204342D01*
X88590381Y-73299580D01*
X88590381Y-73394819D01*
X88542762Y-73490057D01*
X88495143Y-73537676D01*
X88399905Y-73585295D01*
X88209429Y-73632914D01*
X87971333Y-73632914D01*
X87780857Y-73585295D01*
X87685619Y-73537676D01*
X87638000Y-73490057D01*
X87590381Y-73394819D01*
X87590381Y-72442438D02*
X87590381Y-72347199D01*
X87638000Y-72251961D01*
X87685619Y-72204342D01*
X87780857Y-72156723D01*
X87971333Y-72109104D01*
X88209429Y-72109104D01*
X88399905Y-72156723D01*
X88495143Y-72204342D01*
X88542762Y-72251961D01*
X88590381Y-72347199D01*
X88590381Y-72442438D01*
X88542762Y-72537676D01*
X88495143Y-72585295D01*
X88399905Y-72632914D01*
X88209429Y-72680533D01*
X87971333Y-72680533D01*
X87780857Y-72632914D01*
X87685619Y-72585295D01*
X87638000Y-72537676D01*
X87590381Y-72442438D01*
X88590381Y-71680533D02*
X87590381Y-71680533D01*
X88590381Y-71109104D02*
X88018952Y-71537676D01*
X87590381Y-71109104D02*
X88161810Y-71680533D01*
X87742781Y-58165905D02*
X88552305Y-58165905D01*
X88647543Y-58118286D01*
X88695162Y-58070667D01*
X88742781Y-57975429D01*
X88742781Y-57784952D01*
X88695162Y-57689714D01*
X88647543Y-57642095D01*
X88552305Y-57594476D01*
X87742781Y-57594476D01*
X88742781Y-56594476D02*
X88742781Y-57165905D01*
X88742781Y-56880191D02*
X87742781Y-56880191D01*
X87885638Y-56975429D01*
X87980876Y-57070667D01*
X88028495Y-57165905D01*
X72375734Y-56687981D02*
X72042400Y-56211790D01*
X71804305Y-56687981D02*
X71804305Y-55687981D01*
X72185258Y-55687981D01*
X72280496Y-55735600D01*
X72328115Y-55783219D01*
X72375734Y-55878457D01*
X72375734Y-56021314D01*
X72328115Y-56116552D01*
X72280496Y-56164171D01*
X72185258Y-56211790D01*
X71804305Y-56211790D01*
X72709067Y-55687981D02*
X73375734Y-56687981D01*
X73375734Y-55687981D02*
X72709067Y-56687981D01*
X71882095Y-58786781D02*
X72453524Y-58786781D01*
X72167809Y-59786781D02*
X72167809Y-58786781D01*
X72691619Y-58786781D02*
X73358286Y-59786781D01*
X73358286Y-58786781D02*
X72691619Y-59786781D01*
X62517543Y-72687181D02*
X62850876Y-73687181D01*
X63184210Y-72687181D01*
X63850877Y-73163371D02*
X63993734Y-73210990D01*
X64041353Y-73258610D01*
X64088972Y-73353848D01*
X64088972Y-73496705D01*
X64041353Y-73591943D01*
X63993734Y-73639562D01*
X63898496Y-73687181D01*
X63517543Y-73687181D01*
X63517543Y-72687181D01*
X63850877Y-72687181D01*
X63946115Y-72734800D01*
X63993734Y-72782419D01*
X64041353Y-72877657D01*
X64041353Y-72972895D01*
X63993734Y-73068133D01*
X63946115Y-73115752D01*
X63850877Y-73163371D01*
X63517543Y-73163371D01*
X64469924Y-73401467D02*
X64946115Y-73401467D01*
X64374686Y-73687181D02*
X64708019Y-72687181D01*
X65041353Y-73687181D01*
X65231829Y-72687181D02*
X65803258Y-72687181D01*
X65517543Y-73687181D02*
X65517543Y-72687181D01*
X66719581Y-72684000D02*
X66624343Y-72636381D01*
X66481486Y-72636381D01*
X66338628Y-72684000D01*
X66243390Y-72779238D01*
X66195771Y-72874476D01*
X66148152Y-73064952D01*
X66148152Y-73207810D01*
X66195771Y-73398286D01*
X66243390Y-73493524D01*
X66338628Y-73588762D01*
X66481486Y-73636381D01*
X66576724Y-73636381D01*
X66719581Y-73588762D01*
X66767200Y-73541143D01*
X66767200Y-73207810D01*
X66576724Y-73207810D01*
X67529105Y-73112571D02*
X67671962Y-73160190D01*
X67719581Y-73207810D01*
X67767200Y-73303048D01*
X67767200Y-73445905D01*
X67719581Y-73541143D01*
X67671962Y-73588762D01*
X67576724Y-73636381D01*
X67195771Y-73636381D01*
X67195771Y-72636381D01*
X67529105Y-72636381D01*
X67624343Y-72684000D01*
X67671962Y-72731619D01*
X67719581Y-72826857D01*
X67719581Y-72922095D01*
X67671962Y-73017333D01*
X67624343Y-73064952D01*
X67529105Y-73112571D01*
X67195771Y-73112571D01*
X68148152Y-73350667D02*
X68624343Y-73350667D01*
X68052914Y-73636381D02*
X68386247Y-72636381D01*
X68719581Y-73636381D01*
X68910057Y-72636381D02*
X69481486Y-72636381D01*
X69195771Y-73636381D02*
X69195771Y-72636381D01*
X103680762Y-69252933D02*
X103728381Y-69110076D01*
X103728381Y-68871980D01*
X103680762Y-68776742D01*
X103633143Y-68729123D01*
X103537905Y-68681504D01*
X103442667Y-68681504D01*
X103347429Y-68729123D01*
X103299810Y-68776742D01*
X103252190Y-68871980D01*
X103204571Y-69062457D01*
X103156952Y-69157695D01*
X103109333Y-69205314D01*
X103014095Y-69252933D01*
X102918857Y-69252933D01*
X102823619Y-69205314D01*
X102776000Y-69157695D01*
X102728381Y-69062457D01*
X102728381Y-68824361D01*
X102776000Y-68681504D01*
X102728381Y-68348171D02*
X103728381Y-68110076D01*
X103014095Y-67919599D01*
X103728381Y-67729123D01*
X102728381Y-67491028D01*
X103728381Y-66586266D02*
X103728381Y-67157695D01*
X103728381Y-66871981D02*
X102728381Y-66871981D01*
X102871238Y-66967219D01*
X102966476Y-67062457D01*
X103014095Y-67157695D01*
M02*
